PathFileType	4	(X/Y/Z)	 0.16m3min.trc
DataRate	CameraRate	NumFrames	NumMarkers	Units	OrigDataRate	OrigDataStartFrame	OrigNumFrames
200	200	10	35	m	200	126	1000
Frame#	Time	C7			LSH			RSH			MAN			RASI			LASI			HIPR			HIPL			RPSI			LPSI			COX			RTHI1			RTHI2			RTHI3			RTHI4			RSHA1			RSHA2			RSHA3			RSHA4			RHEEL			RMET5			RMET1			RTOE			LTHI1			LTHI2			LTHI3			LTHI4			LSHA1			LSHA2			LSHA3			LSHA4			LHEEL			LMET5			LMET1			LTOE			
		X1	Y1	Z1	X2	Y2	Z2	X3	Y3	Z3	X4	Y4	Z4	X5	Y5	Z5	X6	Y6	Z6	X7	Y7	Z7	X8	Y8	Z8	X9	Y9	Z9	X10	Y10	Z10	X11	Y11	Z11	X12	Y12	Z12	X13	Y13	Z13	X14	Y14	Z14	X15	Y15	Z15	X16	Y16	Z16	X17	Y17	Z17	X18	Y18	Z18	X19	Y19	Z19	X20	Y20	Z20	X21	Y21	Z21	X22	Y22	Z22	X23	Y23	Z23	X24	Y24	Z24	X25	Y25	Z25	X26	Y26	Z26	X27	Y27	Z27	X28	Y28	Z28	X29	Y29	Z29	X30	Y30	Z30	X31	Y31	Z31	X32	Y32	Z32	X33	Y33	Z33	X34	Y34	Z34	X35	Y35	Z35	
126	0.6300	-0.378343	1.452341	-0.520749	-0.309329	1.433379	-0.680976	-0.319953	1.422147	-0.346784	-0.265382	1.406574	-0.515449	-0.240158	1.011064	-0.432670	-0.230744	1.021619	-0.621872	-0.284911	1.058042	-0.388983	-0.274774	1.067812	-0.647251	-0.379682	1.056781	-0.463323	-0.368590	1.061234	-0.575048	-0.381587	1.060267	-0.523433	-0.317422	0.802792	-0.346089	-0.297293	0.746643	-0.343330	-0.235847	0.766553	-0.352465	-0.249398	0.826122	-0.356435	-0.347339	0.388191	-0.327315	-0.361725	0.347571	-0.330558	-0.302564	0.333887	-0.334474	-0.293034	0.373857	-0.334970	-0.434522	0.185847	-0.384970	-0.318177	0.076259	-0.328093	-0.283459	0.076539	-0.394776	-0.265690	0.057436	-0.383901	-0.296661	0.819413	-0.692736	-0.278014	0.760402	-0.691924	-0.217444	0.773868	-0.674331	-0.227486	0.833329	-0.672514	-0.346018	0.349811	-0.694436	-0.362030	0.312879	-0.690740	-0.302789	0.296140	-0.676469	-0.294441	0.339080	-0.682734	-0.430612	0.180354	-0.648614	-0.308694	0.066511	-0.682346	-0.287810	0.064040	-0.614322	-0.268945	0.043899	-0.620670	
127	0.6350	-0.377718	1.446601	-0.520905	-0.308660	1.427656	-0.680912	-0.319728	1.416359	-0.346861	-0.264811	1.400760	-0.515363	-0.240750	1.005219	-0.432818	-0.231114	1.015865	-0.621933	-0.285486	1.052224	-0.389080	-0.275102	1.062023	-0.647408	-0.380023	1.051142	-0.463459	-0.368961	1.055570	-0.575271	-0.382057	1.054705	-0.523698	-0.317186	0.796830	-0.346360	-0.296786	0.740791	-0.343615	-0.235436	0.760984	-0.352782	-0.249281	0.820494	-0.356725	-0.346045	0.382999	-0.327449	-0.360720	0.342494	-0.330585	-0.301736	0.328429	-0.335060	-0.291783	0.368246	-0.335941	-0.435369	0.180885	-0.384668	-0.317687	0.072523	-0.328297	-0.283409	0.072789	-0.395121	-0.265429	0.053943	-0.384135	-0.296288	0.813423	-0.692569	-0.277379	0.754521	-0.691547	-0.216846	0.768353	-0.674080	-0.227177	0.827777	-0.672481	-0.345409	0.344877	-0.693291	-0.361761	0.308114	-0.689614	-0.302725	0.290869	-0.675160	-0.293980	0.333703	-0.681387	-0.431869	0.175894	-0.647363	-0.309796	0.062776	-0.682129	-0.288816	0.059447	-0.614202	-0.269839	0.039749	-0.620819	
128	0.6400	-0.377107	1.440546	-0.521092	-0.307909	1.421682	-0.680833	-0.319422	1.410323	-0.346876	-0.264207	1.394696	-0.515266	-0.241387	0.999107	-0.432970	-0.231491	1.009829	-0.622016	-0.286101	1.046127	-0.389185	-0.275450	1.055961	-0.647560	-0.380510	1.045341	-0.463717	-0.369365	1.049647	-0.575502	-0.382578	1.048883	-0.523984	-0.316975	0.790618	-0.346649	-0.296278	0.734699	-0.343928	-0.235033	0.755209	-0.353096	-0.249192	0.814646	-0.357026	-0.344702	0.377617	-0.327608	-0.359682	0.337229	-0.330667	-0.300909	0.322765	-0.335691	-0.290483	0.362373	-0.336974	-0.436196	0.175736	-0.384383	-0.317154	0.068654	-0.328518	-0.283319	0.068888	-0.395457	-0.265125	0.050252	-0.384407	-0.295899	0.807180	-0.692424	-0.276731	0.748393	-0.691147	-0.216254	0.762602	-0.673772	-0.226870	0.821992	-0.672437	-0.344829	0.339772	-0.692048	-0.361531	0.303182	-0.688390	-0.302681	0.285405	-0.673841	-0.293536	0.328129	-0.680055	-0.433163	0.171251	-0.645952	-0.310998	0.058850	-0.681978	-0.289921	0.054750	-0.614012	-0.270775	0.035739	-0.620855	
129	0.6450	-0.376447	1.434272	-0.521301	-0.307070	1.415457	-0.680741	-0.319031	1.404049	-0.346824	-0.263568	1.388388	-0.515160	-0.242073	0.992733	-0.433121	-0.231873	1.003522	-0.622119	-0.286752	1.039766	-0.389309	-0.275811	1.049633	-0.647694	-0.381150	1.039634	-0.463887	-0.369806	1.043467	-0.575744	-0.383155	1.042798	-0.524294	-0.316786	0.784151	-0.346960	-0.295765	0.728355	-0.344276	-0.234640	0.749236	-0.353429	-0.249136	0.808575	-0.357328	-0.343304	0.372064	-0.327797	-0.358614	0.331794	-0.330789	-0.300044	0.316910	-0.336380	-0.289136	0.356253	-0.338033	-0.436978	0.170422	-0.384144	-0.316613	0.064625	-0.328731	-0.283239	0.064735	-0.395803	-0.264855	0.046282	-0.384736	-0.295504	0.800682	-0.692292	-0.276078	0.742017	-0.690715	-0.215676	0.756603	-0.673385	-0.226572	0.815957	-0.672364	-0.344276	0.334495	-0.690735	-0.361333	0.298083	-0.687089	-0.302671	0.279757	-0.672559	-0.293102	0.322354	-0.678763	-0.434567	0.166401	-0.644457	-0.312278	0.054743	-0.681824	-0.291209	0.050029	-0.613646	-0.271814	0.032050	-0.620687	
130	0.6500	-0.375829	1.427755	-0.521460	-0.306140	1.408986	-0.680640	-0.318560	1.397539	-0.346699	-0.262898	1.381830	-0.515040	-0.242807	0.986109	-0.433269	-0.232260	0.996949	-0.622241	-0.287450	1.033149	-0.389457	-0.276179	1.043048	-0.647803	-0.381625	1.033125	-0.464294	-0.370286	1.037027	-0.576000	-0.383791	1.036451	-0.524629	-0.316615	0.777436	-0.347277	-0.295248	0.721776	-0.344655	-0.234255	0.743055	-0.353789	-0.249119	0.802286	-0.357624	-0.341857	0.366332	-0.328021	-0.357512	0.326195	-0.330985	-0.299124	0.310875	-0.337130	-0.287818	0.349991	-0.338947	-0.437696	0.164976	-0.384005	-0.316116	0.060397	-0.328930	-0.283272	0.060271	-0.396252	-0.264694	0.042152	-0.385246	-0.295107	0.793926	-0.692169	-0.275423	0.735378	-0.690235	-0.215118	0.750351	-0.672898	-0.226288	0.809664	-0.672239	-0.343748	0.329059	-0.689397	-0.361179	0.292826	-0.685761	-0.302707	0.273913	-0.671322	-0.292696	0.316380	-0.677515	-0.436204	0.161331	-0.642987	-0.313581	0.050563	-0.681633	-0.292683	0.045464	-0.613034	-0.272924	0.028874	-0.620232	
131	0.6550	-0.375085	1.420984	-0.521739	-0.305125	1.402276	-0.680530	-0.318064	1.390794	-0.346490	-0.262194	1.375036	-0.514909	-0.243587	0.979260	-0.433407	-0.232649	0.990121	-0.622373	-0.288197	1.026287	-0.389629	-0.276551	1.036215	-0.647880	-0.382311	1.026554	-0.464424	-0.370807	1.030331	-0.576276	-0.384453	1.029825	-0.524959	-0.316463	0.770477	-0.347602	-0.294731	0.714962	-0.345074	-0.233877	0.736659	-0.354184	-0.249138	0.795785	-0.357917	-0.340357	0.360424	-0.328274	-0.356373	0.320426	-0.331228	-0.298130	0.304658	-0.337939	-0.286517	0.343576	-0.339739	-0.438390	0.159408	-0.383997	-0.315723	0.055983	-0.329099	-0.283547	0.055514	-0.396910	-0.264690	0.038029	-0.385972	-0.294713	0.786908	-0.692035	-0.274769	0.728478	-0.689699	-0.214586	0.743834	-0.672293	-0.226031	0.803105	-0.672036	-0.343273	0.323476	-0.688095	-0.361117	0.287441	-0.684461	-0.302844	0.267862	-0.670112	-0.292361	0.310198	-0.676321	-0.438240	0.156069	-0.641657	-0.314886	0.046511	-0.681429	-0.294311	0.041304	-0.612183	-0.274063	0.026428	-0.619466	
132	0.6600	-0.374366	1.414067	-0.521916	-0.304052	1.395323	-0.680429	-0.317568	1.383827	-0.346220	-0.261443	1.368012	-0.514768	-0.244401	0.972200	-0.433525	-0.233044	0.983051	-0.622514	-0.289001	1.019202	-0.389823	-0.276929	1.029148	-0.647922	-0.383131	1.020052	-0.464692	-0.371375	1.023378	-0.576569	-0.385141	1.022928	-0.525291	-0.316327	0.763283	-0.347928	-0.294210	0.707910	-0.345534	-0.233509	0.730065	-0.354624	-0.249192	0.789068	-0.358209	-0.338796	0.354343	-0.328530	-0.355195	0.314490	-0.331512	-0.297062	0.298256	-0.338788	-0.285236	0.337027	-0.340417	-0.439155	0.153760	-0.384132	-0.315502	0.051466	-0.329269	-0.284122	0.050586	-0.397837	-0.264885	0.034142	-0.386928	-0.294326	0.779626	-0.691867	-0.274112	0.721311	-0.689097	-0.214080	0.737066	-0.671574	-0.225803	0.796287	-0.671731	-0.342910	0.317801	-0.686866	-0.361233	0.281992	-0.683214	-0.303203	0.261653	-0.668929	-0.292177	0.303841	-0.675173	-0.440804	0.150691	-0.640581	-0.316182	0.042822	-0.681233	-0.296014	0.037777	-0.611208	-0.275158	0.024695	-0.618579	
133	0.6650	-0.373649	1.406795	-0.522044	-0.302934	1.388134	-0.680343	-0.317063	1.376674	-0.345954	-0.260652	1.360761	-0.514618	-0.245248	0.964947	-0.433609	-0.233445	0.975757	-0.622657	-0.289866	1.011914	-0.390029	-0.277313	1.021863	-0.647929	-0.383869	1.012787	-0.464868	-0.371990	1.016173	-0.576880	-0.385850	1.015761	-0.525623	-0.316211	0.755854	-0.348264	-0.293691	0.700634	-0.346042	-0.233161	0.723268	-0.355108	-0.249285	0.782138	-0.358493	-0.337208	0.348092	-0.328774	-0.354004	0.308399	-0.331822	-0.295941	0.291679	-0.339665	-0.283932	0.330333	-0.341020	-0.440119	0.148097	-0.384426	-0.315572	0.047017	-0.329400	-0.284992	0.045759	-0.399025	-0.265245	0.030799	-0.388078	-0.293956	0.772082	-0.691639	-0.273455	0.713889	-0.688433	-0.213590	0.730051	-0.670746	-0.225612	0.789209	-0.671309	-0.342745	0.312121	-0.685715	-0.361626	0.276596	-0.682043	-0.303916	0.255373	-0.667769	-0.292244	0.297373	-0.674054	-0.443946	0.145324	-0.639827	-0.317511	0.039695	-0.681082	-0.297618	0.035061	-0.610311	-0.276138	0.023605	-0.617771	
134	0.6700	-0.372924	1.399204	-0.522206	-0.301778	1.380730	-0.680276	-0.316543	1.369351	-0.345706	-0.259823	1.353299	-0.514461	-0.246103	0.957518	-0.433642	-0.233859	0.968250	-0.622798	-0.290799	1.004436	-0.390228	-0.277709	1.014371	-0.647910	-0.384773	1.004989	-0.465317	-0.372649	1.008725	-0.577206	-0.386574	1.008320	-0.525946	-0.316121	0.748206	-0.348608	-0.293178	0.693138	-0.346600	-0.232831	0.716266	-0.355641	-0.249413	0.775010	-0.358786	-0.335649	0.341691	-0.328987	-0.352865	0.302184	-0.332166	-0.294903	0.284947	-0.340546	-0.282674	0.323525	-0.341577	-0.441503	0.142583	-0.384843	-0.316034	0.042884	-0.329449	-0.286152	0.041391	-0.400370	-0.265736	0.028304	-0.389343	-0.293605	0.764281	-0.691333	-0.272791	0.706216	-0.687715	-0.213108	0.722802	-0.669839	-0.225455	0.781895	-0.670771	-0.342852	0.306540	-0.684630	-0.362387	0.271363	-0.680948	-0.305068	0.249101	-0.666619	-0.292651	0.290884	-0.672951	-0.447601	0.140103	-0.639379	-0.318932	0.037261	-0.681114	-0.299012	0.033214	-0.609624	-0.276903	0.023014	-0.617147	
135	0.6750	-0.372134	1.391499	-0.522373	-0.300589	1.373134	-0.680226	-0.316000	1.361890	-0.345491	-0.258949	1.345651	-0.514298	-0.246951	0.949946	-0.433613	-0.234283	0.960553	-0.622934	-0.291794	0.996794	-0.390401	-0.278123	1.006689	-0.647875	-0.385803	0.997385	-0.465700	-0.373354	1.001037	-0.577542	-0.387325	1.000621	-0.526265	-0.316066	0.740342	-0.348974	-0.292677	0.685432	-0.347209	-0.232521	0.709072	-0.356211	-0.249581	0.767694	-0.359094	-0.334207	0.335220	-0.329183	-0.351874	0.295914	-0.332562	-0.294080	0.278130	-0.341460	-0.281515	0.316608	-0.342191	-0.443439	0.137342	-0.385377	-0.316950	0.039339	-0.329409	-0.287518	0.037787	-0.401690	-0.266326	0.026609	-0.390452	-0.293270	0.756243	-0.690934	-0.272111	0.698312	-0.686964	-0.212618	0.715342	-0.668891	-0.225325	0.774361	-0.670128	-0.343279	0.301150	-0.683584	-0.363544	0.266400	-0.679918	-0.306712	0.242965	-0.665535	-0.293433	0.284474	-0.671872	-0.451627	0.135092	-0.639196	-0.320472	0.035513	-0.681379	-0.300223	0.032115	-0.609226	-0.277534	0.022751	-0.616783	
